<?xml version="1.0" encoding="UTF-8"?>
<svg id="Layer_1" xmlns="http://www.w3.org/2000/svg" viewBox="0 0 544 576">
  <defs>
    <style>.cls-1{fill:#fff;}</style>
  </defs>
  <g id="t5pfUN.tif">
    <path d="M389.44,438.43c-17.71.1-29.21-3.85-45.22-10.33-16.85-6.83-32.07-15.85-47.57-25.29-9.21-5.61-20.24-6.81-30.88-6.51-12.28.35-23.36,4.22-34.51,8.76-5.02,2.05-8.89,4.59-11.49,9.69-6,11.74-4.6,29.24-1.51,42.4,1.95,8.32,3.74,16.32,4.73,24.8s1.54,22.09-3.64,27.62c-5,5.33-12.94,4.95-18.36.25-4.12-3.57-6.7-8.35-9.04-13.4l-14.52-31.36c-9.95-21.49-20.75-41.97-27.24-65.26-1.08-3.87-1.42-7.54-1.43-11.88-15.9,9.31-31.04,18.67-45.96,29.1-10.37,7.25-20.38,14.29-29.58,22.82-9.49,8.79-15.42,20.45-16.65,33.18-.93,9.63,2.24,18.39,8.58,25.36l5.01,5.51c11.6,12.76,32.63,16.28,49.72,16.04,7.31-.1,14.28.98,20.62,4.48,4.05,2.23,7.47,6.19,6.7,11.11-1.4,8.94-7.23,16.33-14.91,20.93-16.08,9.62-39.72,7.87-57.08.83-17.95-7.28-35.81-18.29-48.75-32.64-7.14-7.92-12-16.74-15.33-26.78s-5.06-19.26-4.69-29.8c.61-17.43,7.78-33.47,20.04-45.92,5.3-5.39,10.98-9.8,17.18-14.39,30.26-22.36,63.75-39.8,99.13-52.52,1.8-.65,2.1-1.67,1.89-3.56-4.17-36.18-.1-73.06,12-107.49,19.21-54.63,57.49-96.12,107.41-124.33,1.27-.72,2.37-1.61,2.56-3.05,3.4-26.43,8.35-56.43,16.17-81.73,2.12-6.85,4.58-13.31,7.81-19.64s9.65-14.72,15.78-11.12c6.68,3.92,8.1,12.38,7.36,20.22-1,10.71-1.38,21.03-1.76,31.72l-.56,15.84c-.47,9.62-1.04,18.71-2.63,28.27.42.21,1.2.43,1.72.49,8.01-3.39,16.02-5.79,24.63-6.59,3.02.38,5.07-.82,6.86-3.05l38.07-47.48c2.2,1.15,3.83,2.7,5.23,4.64,7.8,10.83,12.72,27.69,15.88,41.08.39,1.67,1.38,3.29,3.3,3.7l57.16,12.09c1.2.25,2.47-1.18,3.15-2.11l28.89-39.4c12.58,19.95,16.69,48.84,11.81,71.59l-4.35,20.24c-2.74,13.94-8.56,26.64-16.48,38.43-7.3,10.86-16.06,19.81-26.43,28.62l53.11,2.87c4.54.25,8.5,2.45,11.63,5.33,2.81,2.6,3.52,6.61,1.28,9.81-2.43,3.48-5.98,5.64-9.5,7.97-1.22.81-2.62,2.14-4.05,2.42l-10.91,2.12c-11.99,1.11-23.63,1.17-35.77.55-13.62-.69-26.67-1.64-40.23-1.15-11.89.43-23.42,1.11-34.92,4.14l-16.18,4.25c-9.61,2.53-18.62,6.35-26.13,12.74-9.27,7.88-14.45,18.46-15.58,30.59-.79,8.45.37,16.53,2.35,24.82,2.39,9.99,6.45,19,10.46,28.41,3.02,7.08,6.05,13.6,11.35,19.25l14.74,15.72,27.27,23.62c3.63,3.14,6.23,7.09,7.31,11.66.82,3.48-.73,6.74-3.96,8.43s-7.24,2.28-11.11,2.3ZM403.63,156.84c0-9.18-7.44-16.62-16.62-16.62s-16.62,7.44-16.62,16.62,7.44,16.62,16.62,16.62,16.62-7.44,16.62-16.62ZM470.04,170.36c0-9.18-7.44-16.63-16.62-16.63s-16.62,7.44-16.62,16.63,7.44,16.63,16.62,16.63,16.62-7.44,16.62-16.63Z"/>
    <path class="cls-1" d="M470.04,170.36c0,9.18-7.44,16.63-16.62,16.63s-16.62-7.44-16.62-16.63,7.44-16.63,16.62-16.63,16.62,7.44,16.62,16.63ZM459.27,170.23c0-3.31-2.68-5.99-5.99-5.99s-5.99,2.68-5.99,5.99,2.68,5.99,5.99,5.99,5.99-2.68,5.99-5.99Z"/>
    <circle cx="453.29" cy="170.23" r="5.99"/>
    <path class="cls-1" d="M403.63,156.84c0,9.18-7.44,16.62-16.62,16.62s-16.62-7.44-16.62-16.62,7.44-16.62,16.62-16.62,16.62,7.44,16.62,16.62ZM392.99,156.77c0-3.3-2.67-5.97-5.97-5.97s-5.97,2.67-5.97,5.97,2.67,5.97,5.97,5.97,5.97-2.67,5.97-5.97Z"/>
    <circle cx="387.02" cy="156.77" r="5.97"/>
  </g>
</svg>
